<?xml version="1.0" encoding="UTF-8" standalone="no"?>
<svg
   width="317"
   height="66"
   viewBox="0 0 317 66"
   fill="none"
   version="1.1"
   id="svg18"
   sodipodi:docname="logo.svg"
   inkscape:version="1.2.2 (732a01da63, 2022-12-09)"
   xmlns:inkscape="http://www.inkscape.org/namespaces/inkscape"
   xmlns:sodipodi="http://sodipodi.sourceforge.net/DTD/sodipodi-0.dtd"
   xmlns="http://www.w3.org/2000/svg"
   xmlns:svg="http://www.w3.org/2000/svg">
  <defs
     id="defs22" />
  <sodipodi:namedview
     id="namedview20"
     pagecolor="#ffffff"
     bordercolor="#000000"
     borderopacity="0.25"
     inkscape:showpageshadow="2"
     inkscape:pageopacity="0.0"
     inkscape:pagecheckerboard="0"
     inkscape:deskcolor="#d1d1d1"
     showgrid="false"
     inkscape:zoom="4.0126183"
     inkscape:cx="152.64347"
     inkscape:cy="32.896226"
     inkscape:window-width="1920"
     inkscape:window-height="1017"
     inkscape:window-x="1912"
     inkscape:window-y="-8"
     inkscape:window-maximized="1"
     inkscape:current-layer="svg18" />
  <path
     d="M71.5186 56.8416V29.4103H92.8743V34.9381H78.6649V40.5075H89.9659V45.7028H78.6649V51.3137H93.4144V56.8416H71.5186ZM96.3998 56.8416V36.0603H102.715L102.923 40.0919C103.588 38.6238 104.515 37.515 105.707 36.7669C106.925 36.0188 108.324 35.6447 109.903 35.6447C111.454 35.6447 112.797 35.9906 113.933 36.6838C115.068 37.3769 115.913 38.4013 116.467 39.7594C116.91 38.845 117.478 38.0834 118.171 37.4734C118.891 36.8635 119.708 36.4063 120.622 36.1019C121.536 35.7975 122.477 35.6447 123.447 35.6447C124.832 35.6447 126.05 35.9222 127.104 36.476C128.156 37.0028 128.987 37.8194 129.597 38.9281C130.233 40.0088 130.552 41.3669 130.552 43.0013V56.8416H123.489V44.6222C123.489 43.2922 123.225 42.3644 122.7 41.8375C122.201 41.3106 121.522 41.0478 120.664 41.0478C119.971 41.0478 119.334 41.2275 118.753 41.5881C118.198 41.9206 117.769 42.4328 117.465 43.1259C117.159 43.8191 117.008 44.6919 117.008 45.7444V56.8416H109.944V44.6222C109.944 43.2922 109.68 42.3644 109.155 41.8375C108.628 41.3106 107.95 41.0478 107.119 41.0478C106.481 41.0478 105.873 41.2141 105.291 41.5466C104.736 41.8791 104.294 42.4059 103.961 43.1259C103.629 43.8191 103.463 44.7334 103.463 45.8691V56.8416H96.3998ZM134.683 65.5697V36.0603H141.039L141.413 43.5831L140.582 42.7103C140.775 41.3253 141.206 40.1053 141.87 39.0528C142.535 38.0003 143.393 37.1691 144.446 36.5591C145.498 35.9491 146.703 35.6447 148.061 35.6447C149.778 35.6447 151.274 36.0738 152.548 36.9331C153.822 37.7644 154.805 38.9831 155.498 40.5906C156.218 42.17 156.578 44.0953 156.578 46.3678C156.578 48.6403 156.218 50.5937 155.498 52.2281C154.777 53.8625 153.767 55.1094 152.465 55.9687C151.191 56.8281 149.695 57.2572 147.978 57.2572C146.094 57.2572 144.571 56.7034 143.408 55.5947C142.244 54.4591 141.468 53.0313 141.081 51.3137L141.746 50.3163V65.5697H134.683ZM145.568 52.0619C146.786 52.0619 147.742 51.6181 148.435 50.7319C149.127 49.8175 149.474 48.3909 149.474 46.4509C149.474 44.511 149.127 43.0978 148.435 42.2116C147.77 41.2972 146.828 40.84 145.61 40.84C144.834 40.84 144.156 41.0613 143.574 41.505C142.992 41.9206 142.535 42.5441 142.203 43.3753C141.897 44.2066 141.746 45.2322 141.746 46.4509C141.746 47.6147 141.884 48.6256 142.161 49.485C142.465 50.3163 142.909 50.9531 143.491 51.3969C144.072 51.8406 144.764 52.0619 145.568 52.0619ZM166.88 27.2491V49.7759C166.88 50.6903 167.033 51.3419 167.337 51.7294C167.641 52.1169 168.154 52.3112 168.874 52.3112C169.29 52.3112 169.635 52.2831 169.913 52.2281C170.19 52.1731 170.523 52.09 170.91 51.9788L170.453 56.2181C169.954 56.5225 169.303 56.7719 168.5 56.9662C167.697 57.1606 166.908 57.2572 166.132 57.2572C163.916 57.2572 162.31 56.745 161.312 55.7194C160.315 54.6938 159.817 53.0178 159.817 50.6903V27.2491H166.88ZM182.55 35.6447C184.738 35.6447 186.649 36.0738 188.283 36.9331C189.945 37.7644 191.233 38.9978 192.147 40.6322C193.089 42.2397 193.56 44.1785 193.56 46.4509C193.56 48.7234 193.089 50.6769 192.147 52.3112C191.233 53.9187 189.945 55.1509 188.283 56.0103C186.649 56.8416 184.738 57.2572 182.55 57.2572C180.417 57.2572 178.519 56.8416 176.857 56.0103C175.196 55.1509 173.894 53.9187 172.952 52.3112C172.038 50.6769 171.581 48.7234 171.581 46.4509C171.581 44.1785 172.038 42.2397 172.952 40.6322C173.894 38.9978 175.196 37.7644 176.857 36.9331C178.519 36.0738 180.417 35.6447 182.55 35.6447ZM182.55 40.6738C181.747 40.6738 181.054 40.8681 180.472 41.2556C179.89 41.6431 179.447 42.2666 179.143 43.1259C178.838 43.9853 178.686 45.0928 178.686 46.4509C178.686 47.8091 178.838 48.9166 179.143 49.7759C179.447 50.6072 179.89 51.2306 180.472 51.6463C181.054 52.0338 181.747 52.2281 182.55 52.2281C183.38 52.2281 184.087 52.0338 184.668 51.6463C185.25 51.2306 185.694 50.6072 185.998 49.7759C186.302 48.9166 186.455 47.8091 186.455 46.4509C186.455 45.0928 186.302 43.9853 185.998 43.1259C185.694 42.2666 185.25 41.6431 184.668 41.2556C184.087 40.8681 183.38 40.6738 182.55 40.6738ZM216.465 36.0603L208.903 56.8416C208.127 59.0309 207.283 60.7765 206.369 62.0784C205.455 63.3803 204.374 64.3228 203.128 64.9047C201.882 65.4866 200.386 65.7775 198.641 65.7775C197.477 65.7775 196.411 65.6528 195.442 65.4034C194.471 65.1541 193.627 64.8081 192.907 64.3644L194.32 59.5847C194.818 59.9453 195.344 60.1947 195.899 60.3328C196.452 60.4991 197.159 60.5822 198.018 60.5822C198.82 60.5822 199.472 60.444 199.97 60.1666C200.496 59.8891 200.911 59.3634 201.217 58.5872L201.757 57.2987L199.347 51.6463L193.115 36.0603H200.884L204.084 47.9056L205.081 52.3112L206.244 47.7394L209.443 36.0603H216.465ZM218.146 56.8416V36.0603H224.462L224.669 40.0919C225.334 38.6238 226.262 37.515 227.453 36.7669C228.671 36.0188 230.071 35.6447 231.649 35.6447C233.2 35.6447 234.544 35.9906 235.68 36.6838C236.815 37.3769 237.661 38.4013 238.214 39.7594C238.658 38.845 239.225 38.0834 239.918 37.4734C240.637 36.8635 241.455 36.4063 242.369 36.1019C243.283 35.7975 244.225 35.6447 245.194 35.6447C246.579 35.6447 247.798 35.9222 248.85 36.476C249.903 37.0028 250.733 37.8194 251.343 38.9281C251.98 40.0088 252.299 41.3669 252.299 43.0013V56.8416H245.236V44.6222C245.236 43.2922 244.973 42.3644 244.446 41.8375C243.948 41.3106 243.269 41.0478 242.41 41.0478C241.718 41.0478 241.081 41.2275 240.499 41.5881C239.946 41.9206 239.516 42.4328 239.211 43.1259C238.907 43.8191 238.754 44.6919 238.754 45.7444V56.8416H231.691V44.6222C231.691 43.2922 231.428 42.3644 230.902 41.8375C230.375 41.3106 229.697 41.0478 228.866 41.0478C228.229 41.0478 227.619 41.2141 227.038 41.5466C226.484 41.8791 226.04 42.4059 225.708 43.1259C225.376 43.8191 225.21 44.7334 225.21 45.8691V56.8416H218.146ZM268.021 43.6663C268.021 42.6969 267.744 41.9341 267.19 41.3803C266.663 40.7984 265.944 40.5075 265.03 40.5075C264.116 40.5075 263.326 40.7434 262.661 41.2141C262.025 41.6578 261.581 42.4609 261.332 43.6247L255.349 42.2116C255.736 40.2166 256.762 38.6238 258.424 37.4319C260.085 36.24 262.426 35.6447 265.445 35.6447C267.468 35.6447 269.184 35.9491 270.597 36.5591C272.038 37.141 273.131 38.0272 273.879 39.2191C274.655 40.3828 275.043 41.8241 275.043 43.5416V51.1475C275.043 52.2281 275.528 52.7684 276.497 52.7684C276.995 52.7684 277.397 52.7134 277.702 52.6022L277.286 56.6338C276.455 57.0213 275.445 57.2156 274.253 57.2156C273.173 57.2156 272.217 57.0494 271.386 56.7169C270.556 56.3563 269.904 55.8306 269.434 55.1375C268.963 54.4175 268.727 53.5166 268.727 52.4359V52.1866L269.517 51.8956C269.517 53.0875 269.156 54.085 268.437 54.8881C267.744 55.6913 266.83 56.2878 265.694 56.6753C264.586 57.0628 263.423 57.2572 262.204 57.2572C260.792 57.2572 259.559 57.0359 258.507 56.5922C257.454 56.1484 256.637 55.5116 256.055 54.6803C255.502 53.8209 255.224 52.7684 255.224 51.5216C255.224 50.0253 255.668 48.7919 256.554 47.8225C257.468 46.825 258.894 46.1319 260.833 45.7444L268.686 44.1234L268.644 47.8641L264.656 48.6953C263.825 48.8616 263.202 49.1109 262.786 49.4434C262.399 49.7478 262.204 50.2197 262.204 50.8566C262.204 51.4666 262.426 51.9237 262.869 52.2281C263.313 52.5325 263.838 52.6853 264.448 52.6853C264.918 52.6853 265.362 52.6156 265.778 52.4775C266.221 52.3394 266.608 52.1316 266.941 51.8541C267.273 51.5497 267.536 51.1756 267.73 50.7319C267.925 50.2881 268.021 49.7625 268.021 49.1525V43.6663ZM287.53 29.4519V49.4434C287.53 50.4409 287.766 51.1609 288.237 51.6047C288.735 52.0203 289.415 52.2281 290.272 52.2281C290.937 52.2281 291.506 52.1584 291.976 52.0203C292.475 51.8541 292.918 51.6181 293.305 51.3137L294.053 55.6778C293.362 56.1766 292.489 56.5641 291.436 56.8416C290.384 57.119 289.303 57.2572 288.195 57.2572C286.616 57.2572 285.245 57.0359 284.082 56.5922C282.947 56.1484 282.061 55.4419 281.423 54.4725C280.814 53.5031 280.495 52.2147 280.467 50.6072V31.4053L287.53 29.4519ZM293.721 36.0603V41.0894H276.894V36.0603H293.721ZM306.29 57.2572C303.992 57.2572 301.998 56.8281 300.308 55.9687C298.646 55.1094 297.358 53.8772 296.444 52.2697C295.53 50.6622 295.073 48.7234 295.073 46.4509C295.073 44.1785 295.53 42.2397 296.444 40.6322C297.358 39.0247 298.632 37.7925 300.266 36.9331C301.928 36.0738 303.826 35.6447 305.958 35.6447C308.147 35.6447 310.002 36.0738 311.526 36.9331C313.076 37.7644 314.254 38.9281 315.057 40.4244C315.86 41.8925 316.262 43.5831 316.262 45.495C316.262 45.9938 316.249 46.4925 316.22 46.9913C316.192 47.49 316.151 47.9056 316.096 48.2381H299.643V44.4559H312.98L309.614 45.7444C309.614 44.0819 309.31 42.8069 308.7 41.9206C308.119 41.0344 307.205 40.5906 305.958 40.5906C305.072 40.5906 304.31 40.7984 303.673 41.2141C303.063 41.6297 302.593 42.2812 302.26 43.1675C301.956 44.0538 301.803 45.1906 301.803 46.5756C301.803 47.9337 301.983 49.0413 302.343 49.9006C302.704 50.7319 303.216 51.3419 303.881 51.7294C304.545 52.09 305.348 52.2697 306.29 52.2697C307.343 52.2697 308.174 52.0619 308.783 51.6463C309.42 51.2306 309.892 50.6488 310.196 49.9006L315.847 51.7709C315.459 52.9628 314.78 53.9737 313.811 54.805C312.869 55.6081 311.733 56.2181 310.404 56.6338C309.102 57.0494 307.731 57.2572 306.29 57.2572Z"
     fill="#34495E"
     id="path2" />
  <path
     d="m 73.556642,7.95944 h 2.432 v 4.03476 c 0,3.1629 -0.405,7.9073 -2.655,10.908 -0.446,-0.4257 -1.5,-1.1759 -2.067,-1.4192 2.107,-2.7777 2.29,-6.7314 2.29,-9.5091 z m 1.398,0 h 13.965 v 4.64306 h -13.965 v -1.764 h 11.573 V 9.72338 h -11.573 z m -2.756,-2.79797 h 17.552 v 2.02751 h -17.552 z m 6.506,11.09053 h 10.154 v 1.4801 h -10.154 z m 0,2.3316 h 10.154 v 1.4801 h -10.154 z m -0.243,2.3925 h 11.472 v 1.6828 h -11.472 z m 0.811,-7.218 h 10.093 v 1.6423 h -10.093 v 7.8668 h -2.311 v -7.218 l 2.29,-2.2911 z m 3.019,0.8719 h 2.291 v 7.0963 h -2.291 z m -3.85,-2.6966 2.31,0.7299 c -1.054,2.1289 -2.797,4.2375 -4.52,5.5148 -0.324,-0.4663 -1.135,-1.4801 -1.621,-1.9464 1.54,-1.0137 3.02,-2.6155 3.831,-4.2983 z m 4.763,0 2.493,0.588 c -0.69,1.0137 -1.379,2.0072 -1.906,2.656 l -1.763,-0.5677 c 0.426,-0.7705 0.932,-1.8856 1.176,-2.6763 z m 11.714,-6.32588 H 107.36363 V 7.91889 H 94.918642 Z m 0,4.66328 h 12.485988 v 2.2708 H 94.918642 Z m -0.04,4.785 h 12.606988 v 2.291 H 94.878642 Z m -1.358,-9.44828 h 2.412 v 7.29908 c 0,3.2237 -0.405,7.7856 -2.898,10.5025 -0.386,-0.4663 -1.379,-1.2773 -1.906,-1.5814 2.21,-2.4533 2.392,-6.0826 2.392,-8.9414 z m 12.991988,0 h 2.412 V 20.4287 c 0,1.2976 -0.284,1.9464 -1.095,2.3316 -0.851,0.3852 -2.067,0.4258 -3.911,0.4055 -0.102,-0.6488 -0.467,-1.7031 -0.791,-2.3316 1.155,0.0811 2.493,0.0608 2.858,0.0608 0.385,-0.0203 0.527,-0.1419 0.527,-0.4866 z M 99.763642,6.5199 h 2.471988 v 16.5243 h -2.471988 z m 22.557988,4.9066 h 2.452 v 11.861 h -2.452 z m -5.331,2.5344 h 13.033 v 2.21 h -13.033 z m 8.25,0.9732 c 1.114,2.21 3.263,4.4605 5.371,5.677 -0.548,0.4664 -1.318,1.3382 -1.723,1.9465 -2.128,-1.5207 -4.216,-4.2578 -5.473,-6.9544 z m -3.243,-0.1825 1.905,0.6691 c -1.318,2.8588 -3.567,5.5554 -5.959,7.076 -0.385,-0.5879 -1.155,-1.4598 -1.682,-1.9261 2.31,-1.1962 4.56,-3.5076 5.736,-5.819 z m -1.358,-7.48151 v 2.71687 h 5.959 V 7.27009 Z m -2.311,-2.1289 h 10.702 v 6.99491 h -10.702 z m -2.655,-0.85156 2.27,0.72991 c -1.358,3.44678 -3.527,7.07606 -5.776,9.36716 -0.203,-0.5677 -0.872,-1.9059 -1.277,-2.4939 1.885,-1.8247 3.709,-4.70382 4.783,-7.60317 z m -1.946,5.61623 2.291,-2.31137 0.02,0.02027 V 23.2266 h -2.311 z m 18.1,-4.78494 h 4.824 v 2.16944 h -2.696 V 23.3077 h -2.128 z m 4.094,0 h 0.405 l 0.345,-0.0811 1.621,0.91238 c -0.527,1.74367 -1.236,3.99421 -1.844,5.5959 1.297,1.541 1.561,2.8994 1.561,4.0754 0,1.2976 -0.264,2.1491 -0.933,2.5952 -0.324,0.2433 -0.729,0.3852 -1.175,0.446 -0.385,0.0406 -0.892,0.0609 -1.399,0.0406 0,-0.588 -0.182,-1.5207 -0.507,-2.1086 0.345,0.0202 0.669,0.0202 0.913,0.0202 0.222,0 0.425,-0.0405 0.587,-0.1622 0.264,-0.1824 0.345,-0.5677 0.345,-1.1556 0,-0.9124 -0.304,-2.1492 -1.48,-3.4874 0.588,-1.82474 1.257,-4.68354 1.561,-5.98115 z m 4.155,3.83201 h 7.499 v 1.98697 h -7.499 z m 3.668,-2.59523 c -1.114,1.62202 -3.243,3.52788 -5.472,4.6227 -0.243,-0.5879 -0.73,-1.48005 -1.135,-2.0072 2.229,-0.97321 4.398,-2.98045 5.432,-4.70384 h 2.189 c 1.439,1.92614 3.547,3.62925 5.655,4.39971 -0.446,0.56771 -0.912,1.45983 -1.237,2.14913 -1.986,-0.97317 -4.236,-2.79793 -5.432,-4.4605 z m -3.08,7.664 v 1.8045 h 6.323 v -1.8045 z m -2.108,-1.8653 h 10.62 v 5.5554 h -10.62 z m 4.114,-1.9667 h 2.189 v 5.1702 c 0,3.0007 -0.973,6.3258 -6.445,8.0492 -0.223,-0.5069 -0.892,-1.4395 -1.297,-1.8247 5.006,-1.5207 5.553,-3.8929 5.553,-6.2853 z m 2.351,6.4475 c 1.257,3.0616 2.959,4.0145 5.27,4.7241 -0.547,0.5069 -1.155,1.2976 -1.398,2.0073 -2.635,-0.9935 -4.541,-2.433 -5.939,-6.3056 z m 15.566,-5.8798 h 6.709 v 2.1897 h -6.709 z m 0.223,9.286 h 6.77 v 2.1492 h -6.77 z m 3,-13.05717 c -1.095,1.82477 -2.959,4.19697 -4.986,5.73787 -0.304,-0.6488 -0.912,-1.5815 -1.378,-2.1086 2.067,-1.4801 4.134,-4.15642 5.107,-6.06229 h 2.311 c 1.398,2.12889 3.445,4.56192 5.411,5.79869 -0.506,0.6083 -1.074,1.5004 -1.479,2.2506 -1.824,-1.4193 -3.871,-3.85233 -4.986,-5.61627 z m -4.277,7.76537 h 9.04 v 8.4345 h -2.331 v -6.2853 h -4.479 v 6.3664 h -2.23 z m -5.634,-10.48224 2.108,0.79073 c -0.831,1.54091 -1.764,3.3454 -2.554,4.48081 l -1.622,-0.70963 c 0.73,-1.19623 1.602,-3.14265 2.068,-4.56191 z m 2.331,2.39247 1.966,0.89211 c -1.46,2.33164 -3.446,5.14986 -4.986,6.91386 l -1.399,-0.7908 c 1.5,-1.845 3.365,-4.82545 4.419,-7.01517 z m -5.453,2.41274 1.156,-1.66256 c 1.074,0.93266 2.331,2.20999 2.858,3.14269 l -1.257,1.8856 c -0.487,-0.9733 -1.723,-2.3925 -2.757,-3.36573 z m 4.844,2.43303 1.602,-0.6691 c 0.79,1.3585 1.56,3.1427 1.804,4.3186 l -1.723,0.7705 c -0.223,-1.176 -0.912,-3.021 -1.683,-4.42 z m -4.864,1.6828 c 1.865,-0.0608 4.601,-0.1622 7.276,-0.2838 l -0.02,1.9261 c -2.493,0.1825 -5.087,0.3447 -7.053,0.4866 z m 5.31,3.3657 1.703,-0.5474 c 0.507,1.1557 1.034,2.6763 1.257,3.6901 l -1.784,0.6285 c -0.203,-1.0138 -0.73,-2.575 -1.176,-3.7712 z m -4.438,-0.3852 2.006,0.3447 c -0.202,1.9464 -0.648,3.9739 -1.236,5.2715 -0.426,-0.2636 -1.338,-0.6893 -1.845,-0.8921 0.588,-1.1962 0.913,-3.0007 1.075,-4.7241 z m 2.27,-1.9059 h 2.128 v 9.0427 h -2.128 z m 23.308,-5.63648 h 12.526 v 2.47358 h -12.526 z m 7.763,-4.15641 h 2.513 V 20.3476 c 0,1.5409 -0.365,2.1897 -1.338,2.5546 -0.993,0.3853 -2.533,0.4258 -4.783,0.4055 -0.122,-0.669 -0.568,-1.7639 -0.932,-2.4127 1.581,0.0811 3.344,0.0811 3.83,0.0608 0.507,-0.0203 0.71,-0.1622 0.71,-0.6285 z m -6.851,9.08329 2.149,-1.0138 c 0.912,1.4801 2.188,3.4874 2.797,4.7241 l -2.311,1.176 c -0.527,-1.2368 -1.723,-3.3251 -2.635,-4.8863 z m -4.641,-3.3454 2.452,-2.45331 0.02,0.04055 V 23.2469 h -2.472 z m 2.027,-5.85954 2.391,0.77046 c -1.358,3.52788 -3.547,7.23828 -5.837,9.56988 -0.264,-0.6083 -0.993,-1.9464 -1.439,-2.5547 1.946,-1.845 3.79,-4.80519 4.885,-7.78564 z m 26.449,3.22375 c -0.283,2.06807 -0.689,4.44029 -1.398,6.83269 -1.216,4.0956 -2.959,6.6098 -5.168,6.6098 -2.27,0 -4.135,-2.4939 -4.135,-5.9204 0,-4.6633 4.074,-8.67777 9.323,-8.67777 5.006,0 8.188,3.48733 8.188,7.92757 0,4.2578 -2.614,7.2788 -7.722,8.0695 l -1.54,-2.3924 c 0.79,-0.1014 1.358,-0.2028 1.905,-0.3244 2.574,-0.6286 4.601,-2.4736 4.601,-5.4541 0,-3.1832 -1.986,-5.45398 -5.493,-5.45398 -4.296,0 -6.648,3.50758 -6.648,6.06228 0,2.0478 0.811,3.0413 1.581,3.0413 0.872,0 1.642,-1.2976 2.493,-4.0348 0.588,-1.9059 1.034,-4.23749 1.237,-6.36639 z m 18.444,2.57499 h 7.256 v 2.1897 h -7.256 z m 0.021,4.7849 h 7.256 v 2.21 h -7.256 z m -0.021,4.8052 h 7.277 v 2.1897 h -7.277 z m -1.155,-14.39536 h 9.567 V 23.0036 h -2.453 V 7.63504 h -4.783 V 23.1253 h -2.331 z m -8.513,3.08183 h 7.804 v 2.31133 h -7.804 z m 2.939,-4.17669 h 2.331 V 23.2875 h -2.331 z m -0.142,5.73788 1.46,0.50684 c -0.669,3.3049 -2.007,7.1977 -3.608,9.3063 -0.223,-0.6893 -0.79,-1.6828 -1.155,-2.2911 1.459,-1.7639 2.756,-4.9268 3.303,-7.52204 z m 2.291,1.78424 c 0.588,0.5677 2.574,3.021 3.02,3.5684 l -1.378,1.9667 c -0.588,-1.1962 -2.027,-3.4062 -2.757,-4.42 z m 22.234,-5.67707 h 10.823 v 1.98696 h -10.823 z m 0.162,12.59087 h 10.134 v 2.0072 h -10.134 z m 1.642,-2.9196 h 6.83 v 1.845 h -6.83 z m -1.237,-6.7922 h 9.749 v 1.845 h -9.749 z m -1.378,2.798 h 12.1 v 1.9869 h -12.1 z m 4.925,2.6155 h 2.21 v 8.921 h -2.21 z m 3.486,-4.6836 c 0.73,2.5952 2.169,5.1499 4.054,6.4272 -0.507,0.4258 -1.196,1.2165 -1.54,1.7842 -2.068,-1.622 -3.527,-4.5619 -4.398,-7.7248 z m -15.059,-1.25706 h 6.709 v 2.25056 h -6.709 z m 2.473,-4.19696 h 2.209 V 23.2875 h -2.209 z m -0.041,5.73788 1.358,0.46634 c -0.587,3.2035 -1.743,7.1166 -3.182,9.2049 -0.202,-0.6488 -0.729,-1.5814 -1.074,-2.1492 1.297,-1.7639 2.432,-4.9471 2.898,-7.52204 z m 2.149,0.89214 c 0.425,0.5068 2.027,2.7979 2.371,3.3251 l -1.236,1.7437 c -0.446,-1.0949 -1.622,-3.2238 -2.149,-4.1159 z m 6.04,-6.46781 h 2.168 v 1.01375 c 0,3.24403 -0.547,9.00216 -5.695,12.81396 -0.344,-0.4664 -1.115,-1.2977 -1.621,-1.6626 4.702,-3.3657 5.148,-8.33311 5.148,-11.19191 z"
     fill="#34495e"
     id="path4" />
  <path
     opacity="0.5"
     d="M0 38.2533L34.1974 4.04498L40.894 10.7439L6.69705 44.9534L0 38.2533Z"
     fill="#ECF0F1"
     id="path6" />
  <path
     opacity="0.5"
     d="M9.58368 47.8408L43.7804 13.6313L50.4781 20.3314L16.2807 54.5397L9.58368 47.8408Z"
     fill="#3498DB"
     id="path8" />
  <path
     opacity="0.5"
     d="M19.2829 57.5432L53.4806 23.3349L60.1771 30.0338L25.9795 64.2433L19.2829 57.5432Z"
     fill="#34495E"
     id="path10" />
  <path
     d="M1.32074 34.2083L35.5172 0L42.1942 6.67811L7.99726 40.8877L1.32074 34.2083Z"
     fill="#ECF0F1"
     id="path12" />
  <path
     d="M10.8586 43.7494L45.0561 9.54102L51.7319 16.2191L17.535 50.4287L10.8586 43.7494Z"
     fill="#3498DB"
     id="path14" />
  <path
     d="M20.555 53.4506L54.7527 19.241L61.4285 25.9203L27.232 60.1286L20.555 53.4506Z"
     fill="#34495E"
     id="path16" />
</svg>
